<svg fill="#000000" xmlns="http://www.w3.org/2000/svg"  viewBox="0 0 50 50" width="50px" height="50px"><path d="M 25.019531 5 C 24.898438 5 24.777344 5.027344 24.660156 5.070313 C 18.574219 5.265625 13.578125 10 13.074219 16 L 13.019531 16 C 12.660156 15.996094 12.324219 16.183594 12.140625 16.496094 C 11.960938 16.808594 11.960938 17.191406 12.140625 17.503906 C 12.324219 17.816406 12.660156 18.003906 13.019531 18 L 13.03125 24.996094 C 12.832031 24.996094 12.640625 25.058594 12.480469 25.171875 C 12.476563 25.171875 12.476563 25.171875 12.476563 25.171875 C 12.472656 25.175781 12.472656 25.175781 12.46875 25.179688 C 12.460938 25.183594 12.453125 25.191406 12.449219 25.195313 C 12.4375 25.203125 11.433594 25.726563 10.601563 27.679688 C 9.773438 29.625 9.03125 32.972656 9.023438 38.917969 C 9.023438 38.921875 9.023438 38.929688 9.023438 38.933594 C 9.019531 38.960938 9.019531 38.984375 9.019531 39.011719 C 9.011719 39.121094 8.960938 40.007813 9.054688 41.117188 C 9.15625 42.296875 9.308594 43.703125 10.3125 44.707031 C 10.558594 44.960938 10.917969 45.066406 11.261719 44.988281 C 11.601563 44.910156 11.878906 44.652344 11.984375 44.316406 C 12.085938 44.4375 12.167969 44.542969 12.277344 44.667969 C 12.644531 45.078125 13.277344 45.113281 13.6875 44.746094 C 14.097656 44.378906 14.136719 43.746094 13.765625 43.332031 C 13.652344 43.203125 13.5625 43.089844 13.457031 42.964844 C 13.777344 42.996094 14.039063 43 14.039063 43 C 14.589844 42.988281 15.03125 42.535156 15.019531 41.980469 C 15.011719 41.429688 14.554688 40.988281 14 41 C 14 41 13.324219 41.003906 12.597656 40.71875 C 12.09375 40.519531 11.628906 40.242188 11.316406 39.703125 C 11.085938 39.152344 11.03125 38.878906 11.03125 38.878906 C 11.03125 38.863281 11.027344 38.84375 11.023438 38.824219 C 11.039063 33.113281 11.777344 30.027344 12.441406 28.460938 C 12.664063 27.9375 12.855469 27.621094 13.03125 27.375 L 13.042969 35.828125 C 13.019531 35.953125 13.023438 36.082031 13.050781 36.207031 C 13.050781 36.207031 13.050781 36.210938 13.050781 36.210938 C 13.160156 39.714844 15.871094 42.59375 19.308594 42.957031 L 20.09375 45.316406 C 20.226563 45.726563 20.609375 46 21.042969 46 L 23.042969 46 C 23.472656 46 23.855469 45.726563 23.988281 45.316406 L 24.761719 43 L 25.320313 43 L 26.09375 45.316406 C 26.226563 45.726563 26.609375 46 27.042969 46 L 29.042969 46 C 29.472656 46 29.855469 45.726563 29.988281 45.316406 L 30.777344 42.957031 C 34.210938 42.59375 36.925781 39.710938 37.03125 36.207031 C 37.058594 36.082031 37.0625 35.949219 37.042969 35.820313 L 37.03125 27.363281 C 37.203125 27.609375 37.394531 27.925781 37.617188 28.457031 C 38.242188 29.949219 38.925781 32.835938 39.003906 38.019531 C 38.988281 38.160156 38.894531 38.945313 38.347656 40.167969 C 38.082031 40.414063 37.773438 40.589844 37.441406 40.71875 C 36.714844 41.003906 36.039063 41 36.039063 41 C 35.488281 40.988281 35.03125 41.429688 35.019531 41.980469 C 35.011719 42.535156 35.449219 42.988281 36 43 C 36 43 36.261719 42.992188 36.574219 42.964844 C 36.46875 43.085938 36.386719 43.207031 36.273438 43.332031 C 35.90625 43.746094 35.941406 44.378906 36.351563 44.746094 C 36.765625 45.113281 37.398438 45.078125 37.765625 44.667969 C 37.871094 44.550781 37.957031 44.433594 38.050781 44.316406 C 38.160156 44.652344 38.433594 44.90625 38.777344 44.988281 C 39.121094 45.066406 39.480469 44.960938 39.726563 44.707031 C 40.730469 43.703125 40.882813 42.296875 40.984375 41.117188 C 41.078125 40.023438 41.03125 39.15625 41.019531 39.027344 C 41.023438 39.019531 41.023438 39.007813 41.019531 39 C 41.019531 38.992188 41.023438 38.988281 41.019531 38.980469 C 41.023438 38.976563 41.023438 38.972656 41.019531 38.96875 C 41.019531 38.671875 41.011719 38.414063 41.007813 38.132813 C 41.007813 38.128906 41.015625 38.085938 41.015625 38.085938 C 41.023438 37.992188 41.019531 37.898438 41 37.804688 C 40.910156 32.566406 40.222656 29.5 39.460938 27.683594 C 38.753906 25.996094 37.953125 25.402344 37.730469 25.261719 C 37.578125 25.117188 37.386719 25.027344 37.179688 25 C 37.164063 25 37.148438 24.996094 37.128906 24.996094 C 37.125 24.996094 37.117188 24.996094 37.113281 24.996094 C 37.085938 24.992188 37.058594 24.992188 37.03125 24.992188 L 37.023438 18 C 37.382813 18.003906 37.71875 17.8125 37.898438 17.503906 C 38.082031 17.191406 38.082031 16.804688 37.898438 16.496094 C 37.714844 16.183594 37.378906 15.996094 37.019531 16 L 36.96875 16 C 36.457031 9.867188 31.277344 5 25.019531 5 Z M 28.042969 46 C 26.9375 46 26.042969 46.894531 26.042969 48 L 30.042969 48 C 30.042969 46.894531 29.144531 46 28.042969 46 Z M 22.042969 46 C 20.9375 46 20.042969 46.894531 20.042969 48 L 24.042969 48 C 24.042969 46.894531 23.144531 46 22.042969 46 Z M 25.019531 7 C 28.898438 7 32.261719 9.234375 33.921875 12.472656 C 32.867188 11.558594 31.496094 11 30 11 C 27.917969 11 26.078125 12.074219 25 13.695313 C 23.921875 12.074219 22.082031 11 20 11 C 18.539063 11 17.195313 11.527344 16.152344 12.40625 C 17.824219 9.199219 21.171875 7 25.019531 7 Z M 20 13 C 22.222656 13 24 14.777344 24 17 C 24 19.222656 22.222656 21 20 21 C 17.808594 21 16.058594 19.269531 16.011719 17.089844 C 16.015625 17.03125 16.015625 16.96875 16.011719 16.90625 C 16.058594 14.730469 17.8125 13 20 13 Z M 30 13 C 32.191406 13 33.941406 14.730469 33.988281 16.910156 C 33.984375 16.96875 33.984375 17.03125 33.988281 17.09375 C 33.941406 19.269531 32.1875 21 30 21 C 27.777344 21 26 19.222656 26 17 C 26 14.777344 27.777344 13 30 13 Z M 19.5 16 C 18.671875 16 18 16.671875 18 17.5 C 18 18.328125 18.671875 19 19.5 19 C 20.328125 19 21 18.328125 21 17.5 C 21 16.671875 20.328125 16 19.5 16 Z M 29.5 16 C 28.671875 16 28 16.671875 28 17.5 C 28 18.328125 28.671875 19 29.5 19 C 30.328125 19 31 18.328125 31 17.5 C 31 16.671875 30.328125 16 29.5 16 Z M 35.027344 20.265625 L 35.03125 26.328125 L 31.6875 29 L 18.390625 29 L 15.03125 26.3125 L 15.027344 20.34375 C 16.105469 21.945313 17.933594 23 20 23 C 22.082031 23 23.921875 21.925781 25 20.304688 C 26.078125 21.925781 27.917969 23 30 23 C 32.101563 23 33.953125 21.90625 35.027344 20.265625 Z M 21.019531 24 C 21.019531 24 21.101563 27 25.019531 27 C 28.9375 27 29.019531 24 29.019531 24 Z M 15.03125 28.875 L 17.042969 30.480469 L 17.042969 35.933594 C 16.828125 35.917969 16.824219 35.933594 16.566406 35.902344 C 16 35.820313 15.398438 35.632813 15.042969 35.46875 Z M 35.03125 28.886719 L 35.042969 35.46875 C 34.683594 35.632813 34.082031 35.820313 33.515625 35.902344 C 33.257813 35.933594 33.253906 35.917969 33.042969 35.933594 L 33.042969 30.480469 Z M 19.042969 31 L 31.042969 31 L 31.042969 37 C 31.042969 37.546875 31.480469 37.992188 32.027344 38 C 32.027344 38 32.832031 38.011719 33.785156 37.878906 C 34.082031 37.839844 34.398438 37.785156 34.71875 37.71875 C 34.015625 39.625 32.191406 41 30.042969 41 L 26.199219 41 C 26.132813 40.988281 26.066406 40.984375 26 40.984375 C 25.957031 40.988281 25.914063 40.992188 25.871094 41 L 24.085938 41 C 24.058594 41 24.03125 41 24 41 L 20.199219 41 C 20.132813 40.988281 20.066406 40.984375 20 40.984375 C 19.976563 40.988281 19.957031 40.988281 19.933594 40.992188 C 17.832031 40.945313 16.058594 39.59375 15.363281 37.71875 C 15.683594 37.785156 16 37.839844 16.296875 37.878906 C 17.25 38.011719 18.054688 38 18.054688 38 C 18.601563 37.992188 19.039063 37.546875 19.042969 37 Z M 21.425781 43 L 22.65625 43 L 22.320313 44 L 21.761719 44 Z M 27.425781 43 L 28.65625 43 L 28.320313 44 L 27.761719 44 Z"/></svg>