<svg fill="#4a90e2" xmlns="http://www.w3.org/2000/svg"  viewBox="0 0 50 50" width="50px" height="50px"><path d="M 25.019531 5 C 18.757813 5 13.019531 9.75 13.019531 15.917969 L 13.019531 16 L 15 16 C 15.035156 16 15.066406 16.015625 15.097656 16.019531 C 15.554688 13.726563 17.574219 12 20 12 C 22.761719 12 25 14.238281 25 17 C 25 14.238281 27.238281 12 30 12 C 32.425781 12 34.445313 13.726563 34.902344 16.019531 C 34.933594 16.015625 34.964844 16 35 16 L 37.019531 16 L 37.019531 15.917969 C 37.019531 10.25 31.28125 5 25.019531 5 Z M 25 17 C 25 19.761719 22.761719 22 20 22 C 17.574219 22 15.554688 20.273438 15.097656 17.980469 C 15.066406 17.984375 15.035156 18 15 18 L 13.027344 18 L 13.042969 23.566406 C 17.699219 27.644531 19.640625 29.28125 20.464844 30 L 29.476563 30 L 37.019531 23.625 L 37.019531 18 L 35 18 C 34.964844 18 34.9375 17.984375 34.902344 17.980469 C 34.445313 20.273438 32.425781 22 30 22 C 27.238281 22 25 19.761719 25 17 Z M 19.5 16 C 18.671875 16 18 16.671875 18 17.5 C 18 18.328125 18.671875 19 19.5 19 C 20.328125 19 21 18.328125 21 17.5 C 21 16.671875 20.328125 16 19.5 16 Z M 29.5 16 C 28.671875 16 28 16.671875 28 17.5 C 28 18.328125 28.671875 19 29.5 19 C 30.328125 19 31 18.328125 31 17.5 C 31 16.671875 30.328125 16 29.5 16 Z M 21.019531 24 L 29.019531 24 C 29.019531 24 28.9375 27 25.019531 27 C 21.105469 27 21.019531 24 21.019531 24 Z M 12.832031 26.027344 C 12.742188 26.042969 12.652344 26.066406 12.566406 26.109375 C 11.742188 26.511719 9.226563 28.613281 9.039063 38.800781 C 9.035156 38.816406 9.03125 38.835938 9.03125 38.855469 C 9.027344 38.859375 9.027344 38.863281 9.027344 38.867188 C 9.023438 38.890625 9.023438 38.917969 9.023438 38.941406 C 9.019531 38.957031 9.019531 38.96875 9.019531 38.984375 C 9.019531 38.996094 9.019531 39.011719 9.019531 39.023438 C 9.011719 39.148438 8.960938 40.019531 9.054688 41.117188 C 9.15625 42.296875 9.3125 43.703125 10.3125 44.707031 C 10.558594 44.960938 10.917969 45.066406 11.261719 44.988281 C 11.601563 44.90625 11.878906 44.65625 11.984375 44.320313 C 12.085938 44.4375 12.167969 44.546875 12.277344 44.667969 C 12.644531 45.078125 13.277344 45.113281 13.6875 44.746094 C 14.097656 44.378906 14.136719 43.746094 13.765625 43.332031 C 13.652344 43.203125 13.5625 43.089844 13.457031 42.964844 C 13.777344 42.996094 14.039063 43 14.039063 43 C 14.589844 42.988281 15.03125 42.535156 15.019531 41.980469 C 15.011719 41.429688 14.554688 40.988281 14 41 C 14 41 13.324219 41.003906 12.597656 40.71875 C 12.078125 40.511719 11.59375 40.222656 11.28125 39.640625 C 11.207031 39.460938 11.125 39.265625 11.089844 39.160156 C 11.070313 39.101563 11.054688 39.035156 11.042969 38.96875 C 11.15625 31.921875 12.382813 29.242188 13.042969 28.339844 L 13.042969 36.082031 C 13.042969 39.691406 15.773438 42.605469 19.285156 42.964844 L 20.074219 45.316406 C 20.207031 45.726563 20.589844 46 21.019531 46 L 23.019531 46 C 23.453125 46 23.832031 45.722656 23.96875 45.316406 L 24.738281 43 L 25.300781 43 L 26.074219 45.316406 C 26.207031 45.726563 26.589844 46 27.019531 46 L 29.019531 46 C 29.453125 46 29.832031 45.722656 29.96875 45.316406 L 30.753906 42.964844 C 34.269531 42.605469 37.019531 39.695313 37.019531 36.082031 L 37.019531 28.375 C 37.660156 29.273438 38.789063 31.792969 38.980469 38.15625 C 38.941406 38.425781 38.832031 39.085938 38.351563 40.167969 C 38.085938 40.414063 37.773438 40.589844 37.441406 40.71875 C 36.71875 41.003906 36.039063 41 36.039063 41 C 35.488281 40.988281 35.03125 41.429688 35.019531 41.980469 C 35.011719 42.535156 35.449219 42.988281 36 43 C 36 43 36.261719 42.992188 36.578125 42.964844 C 36.472656 43.085938 36.386719 43.207031 36.277344 43.332031 C 35.90625 43.746094 35.945313 44.378906 36.355469 44.746094 C 36.765625 45.113281 37.398438 45.078125 37.765625 44.667969 C 37.871094 44.550781 37.957031 44.433594 38.054688 44.316406 C 38.160156 44.652344 38.4375 44.90625 38.78125 44.988281 C 39.125 45.066406 39.484375 44.960938 39.730469 44.707031 C 40.730469 43.703125 40.886719 42.296875 40.984375 41.117188 C 41.082031 39.980469 41.027344 39.050781 41.019531 38.980469 C 41.023438 38.914063 41.015625 38.847656 41 38.78125 C 41 38.601563 41 38.40625 40.996094 38.230469 C 41 38.195313 41.015625 38.085938 41.015625 38.085938 C 41.03125 37.949219 41.015625 37.8125 40.972656 37.683594 C 40.632813 28.457031 38.273438 26.5 37.472656 26.109375 C 37.421875 26.082031 37.367188 26.078125 37.3125 26.0625 L 31.042969 31.402344 L 31.042969 37.082031 C 31.042969 37.628906 31.460938 38.074219 32.003906 38.082031 C 32.039063 38.082031 32.078125 38.082031 32.128906 38.082031 C 32.578125 38.082031 33.648438 38.046875 34.703125 37.785156 C 34.019531 39.648438 32.277344 40.914063 30.199219 40.984375 C 30.066406 40.964844 29.929688 40.96875 29.796875 41 L 26.175781 41 C 26.113281 40.988281 26.046875 40.984375 25.980469 40.984375 C 25.9375 40.988281 25.894531 40.992188 25.851563 41 L 24.265625 41 C 24.195313 40.984375 24.125 40.972656 24.050781 40.96875 C 23.964844 40.96875 23.875 40.980469 23.792969 41 L 20.175781 41 C 20.113281 40.988281 20.046875 40.984375 19.980469 40.984375 C 19.957031 40.988281 19.933594 40.988281 19.910156 40.992188 C 17.800781 40.949219 16.027344 39.667969 15.339844 37.785156 C 16.390625 38.046875 17.460938 38.085938 17.910156 38.085938 C 17.960938 38.085938 18 38.082031 18.03125 38.082031 C 18.578125 38.074219 19.019531 37.632813 19.019531 37.082031 L 19.019531 31.480469 C 17.941406 30.535156 15.816406 28.664063 14 27.070313 C 14.003906 27.0625 14 27.054688 14 27.046875 Z M 28.019531 46 C 26.917969 46 26.019531 46.894531 26.019531 48 L 30.019531 48 C 30.019531 46.894531 29.125 46 28.019531 46 Z M 22.019531 46 C 20.917969 46 20.019531 46.894531 20.019531 48 L 24.019531 48 C 24.019531 46.894531 23.125 46 22.019531 46 Z M 21.40625 43 L 22.636719 43 L 22.300781 44 L 21.742188 44 Z M 27.40625 43 L 28.636719 43 L 28.300781 44 L 27.742188 44 Z"/></svg>